<svg width="26" height="26" viewBox="0 0 26 26" fill="none" xmlns="http://www.w3.org/2000/svg">
<circle cx="13" cy="13" r="13" fill="#ED725D"/>
<g clip-path="url(#clip0)">
<path d="M15.207 10.7968C15 10.7968 14.8323 10.9646 14.8323 11.1715V18.2535C14.8323 18.4603 15 18.6282 15.207 18.6282C15.4139 18.6282 15.5817 18.4603 15.5817 18.2535V11.1715C15.5817 10.9646 15.4139 10.7968 15.207 10.7968Z" fill="white"/>
<path d="M10.7854 10.7968C10.5785 10.7968 10.4107 10.9646 10.4107 11.1715V18.2535C10.4107 18.4603 10.5785 18.6282 10.7854 18.6282C10.9924 18.6282 11.1601 18.4603 11.1601 18.2535V11.1715C11.1601 10.9646 10.9924 10.7968 10.7854 10.7968Z" fill="white"/>
<path d="M7.56295 9.76329V18.9953C7.56295 19.5409 7.76304 20.0534 8.11257 20.421C8.46049 20.7898 8.94468 20.9991 9.45141 20.9999H16.541C17.0478 20.9991 17.532 20.7898 17.8798 20.421C18.2293 20.0534 18.4294 19.5409 18.4294 18.9953V9.76329C19.1242 9.57887 19.5745 8.90762 19.4815 8.19465C19.3884 7.48183 18.7812 6.94861 18.0622 6.94846H16.1437V6.48008C16.1459 6.0862 15.9902 5.70798 15.7113 5.42973C15.4325 5.15163 15.0537 4.99677 14.6598 4.99999H11.3326C10.9387 4.99677 10.5599 5.15163 10.281 5.42973C10.0022 5.70798 9.84646 6.0862 9.84866 6.48008V6.94846H7.93019C7.21123 6.94861 6.60394 7.48183 6.51085 8.19465C6.4179 8.90762 6.86814 9.57887 7.56295 9.76329V9.76329ZM16.541 20.2505H9.45141C8.81075 20.2505 8.31236 19.7002 8.31236 18.9953V9.79623H17.68V18.9953C17.68 19.7002 17.1816 20.2505 16.541 20.2505ZM10.5981 6.48008C10.5956 6.28497 10.6723 6.09717 10.8107 5.95944C10.9491 5.82171 11.1373 5.74603 11.3326 5.7494H14.6598C14.8551 5.74603 15.0433 5.82171 15.1816 5.95944C15.3201 6.09703 15.3968 6.28497 15.3943 6.48008V6.94846H10.5981V6.48008ZM7.93019 7.69787H18.0622C18.4347 7.69787 18.7367 7.99983 18.7367 8.37234C18.7367 8.74485 18.4347 9.04681 18.0622 9.04681H7.93019C7.55768 9.04681 7.25572 8.74485 7.25572 8.37234C7.25572 7.99983 7.55768 7.69787 7.93019 7.69787V7.69787Z" fill="white"/>
<path d="M12.9962 10.7968C12.7892 10.7968 12.6215 10.9646 12.6215 11.1715V18.2535C12.6215 18.4603 12.7892 18.6282 12.9962 18.6282C13.2032 18.6282 13.3709 18.4603 13.3709 18.2535V11.1715C13.3709 10.9646 13.2032 10.7968 12.9962 10.7968Z" fill="white"/>
</g>
<defs>
<clipPath id="clip0">
<rect width="16" height="16" fill="white" transform="translate(5 5)"/>
</clipPath>
</defs>
</svg>
